HIERARCHY
ROOT Hips
{
 OFFSET 0.000000 0.000000 0.000000
 CHANNELS 6 Xposition Yposition Zposition Yrotation Xrotation Zrotation
 JOINT Chest
 {
  OFFSET 0.000000 9.910571 -0.011835
  CHANNELS 3 Yrotation Xrotation Zrotation
  JOINT Chest2
  {
   OFFSET 0.000000 10.789473 0.021497
   CHANNELS 3 Yrotation Xrotation Zrotation
   JOINT Chest3
   {
    OFFSET 0.000000 9.748205 0.000000
    CHANNELS 3 Yrotation Xrotation Zrotation
    JOINT Chest4
    {
     OFFSET 0.000000 9.748205 0.000000
     CHANNELS 3 Yrotation Xrotation Zrotation
     JOINT Neck
     {
      OFFSET 0.000000 13.998479 0.000000
      CHANNELS 3 Yrotation Xrotation Zrotation
      JOINT Head
      {
       OFFSET 0.000000 9.082285 0.051121
       CHANNELS 3 Yrotation Xrotation Zrotation
       End Site
       {
        OFFSET 0.000000 17.246134 0.026702
       }
      }
     }
     JOINT RightCollar
     {
      OFFSET -3.284495 7.824262 0.000000
      CHANNELS 3 Yrotation Xrotation Zrotation
      JOINT RightShoulder
      {
       OFFSET -15.534540 0.000000 0.000000
       CHANNELS 3 Yrotation Xrotation Zrotation
       JOINT RightElbow
       {
        OFFSET 0.000000 -28.251216 0.000000
        CHANNELS 3 Yrotation Xrotation Zrotation
        JOINT RightWrist
        {
         OFFSET 0.000000 -23.418114 0.012537
         CHANNELS 3 Yrotation Xrotation Zrotation
         End Site
         {
          OFFSET 0.000000 -17.723959 0.000000
         }
        }
       }
      }
     }
     JOINT LeftCollar
     {
      OFFSET 3.284495 7.824262 0.000000
      CHANNELS 3 Yrotation Xrotation Zrotation
      JOINT LeftShoulder
      {
       OFFSET 15.534540 0.000000 0.000000
       CHANNELS 3 Yrotation Xrotation Zrotation
       JOINT LeftElbow
       {
        OFFSET 0.000000 -28.251216 0.000000
        CHANNELS 3 Yrotation Xrotation Zrotation
        JOINT LeftWrist
        {
         OFFSET 0.000000 -23.418114 0.012537
         CHANNELS 3 Yrotation Xrotation Zrotation
         End Site
         {
          OFFSET 0.000000 -17.723959 0.000000
         }
        }
       }
      }
     }
    }
   }
  }
 }
 JOINT RightHip
 {
  OFFSET -8.142657 0.057990 0.005917
  CHANNELS 3 Yrotation Xrotation Zrotation
  JOINT RightKnee
  {
   OFFSET 0.000000 -49.716894 0.008478
   CHANNELS 3 Yrotation Xrotation Zrotation
   JOINT RightAnkle
   {
    OFFSET 0.000000 -43.994153 0.004166
    CHANNELS 3 Yrotation Xrotation Zrotation
    JOINT RightToe
    {
     OFFSET 0.000000 -7.619154 17.822051
     CHANNELS 3 Yrotation Xrotation Zrotation
     End Site
     {
      OFFSET 0.000000 -1.595627 7.159905
     }
    }
   }
  }
 }
 JOINT LeftHip
 {
  OFFSET 8.142657 0.057990 0.005917
  CHANNELS 3 Yrotation Xrotation Zrotation
  JOINT LeftKnee
  {
   OFFSET 0.000000 -49.716894 0.008478
   CHANNELS 3 Yrotation Xrotation Zrotation
   JOINT LeftAnkle
   {
    OFFSET 0.000000 -43.994153 0.004166
    CHANNELS 3 Yrotation Xrotation Zrotation
    JOINT LeftToe
    {
     OFFSET 0.000000 -7.619154 17.822051
     CHANNELS 3 Yrotation Xrotation Zrotation
     End Site
     {
      OFFSET 0.000000 -1.595627 7.159905
     }
    }
   }
  }
 }
}
MOTION
Frames: 5
Frame Time: 0.008333
245.230835 56.690506 263.894483 -53.387123 -55.908859 2.338393 -2.006446 21.257076 -1.610193 -0.740897 9.441532 -0.693313 -0.740897 9.441532 -0.693313 -0.543610 7.082009 -0.507263 -6.560264 18.828326 -1.784956 -11.450994 -1.127879 -1.163574 -1.453171 9.594331 12.650901 24.555896 -18.315421 -24.691715 -4.230561 -42.987074 34.804115 2.539872 -10.189295 -8.830389 -1.208980 11.465561 -9.949598 -8.279859 -19.469991 17.758240 17.689366 -45.412139 -36.643601 0.218126 2.376649 -3.860403 -7.624068 -31.157903 -9.293285 -92.937656 73.596928 -108.224274 -2.959752 -4.917018 6.840869 0.018711 0.291697 0.006767 4.281777 -31.711980 12.080566 77.022987 85.141277 79.548029 -0.956339 1.023881 -1.232243 -0.065334 -0.216524 -0.021309
245.230730 56.690365 263.893069 -53.385836 -55.909480 2.331169 -2.006477 21.254897 -1.608598 -0.741648 9.440209 -0.693789 -0.741648 9.440209 -0.693789 -0.544167 7.081019 -0.507610 -6.556235 18.833463 -1.784579 -11.443556 -1.118528 -1.164552 -1.453420 9.596205 12.647330 24.570288 -18.311340 -24.680069 -4.237829 -42.983213 34.793602 2.542582 -10.179750 -8.832742 -1.199775 11.468691 -9.946550 -8.273691 -19.468242 17.752688 17.646887 -45.416993 -36.652395 0.241791 2.370900 -3.805987 -7.626419 -31.155513 -9.281595 -92.923854 73.584925 -108.208426 -2.958630 -4.917052 6.837031 0.024684 0.293126 0.010546 4.279015 -31.712605 12.090405 77.035400 85.138020 79.559568 -0.961862 1.022978 -1.230172 -0.067467 -0.216042 -0.022474
245.231243 56.689605 263.893192 -53.373408 -55.910935 2.321522 -2.007839 21.250488 -1.607205 -0.741458 9.437954 -0.693164 -0.741458 9.437954 -0.693164 -0.544038 7.079326 -0.507148 -6.554944 18.840102 -1.785602 -11.440635 -1.106371 -1.167334 -1.464070 9.598062 12.644551 24.565827 -18.303442 -24.671593 -4.235883 -42.981933 34.795694 2.543564 -10.177937 -8.839875 -1.200285 11.479845 -9.947830 -8.275779 -19.469004 17.752813 17.643782 -45.418008 -36.652674 0.244211 2.373154 -3.802862 -7.629266 -31.153053 -9.281421 -92.926468 73.584409 -108.213122 -2.958323 -4.917947 6.843681 0.021647 0.293693 0.009301 4.276919 -31.715929 12.089912 77.085195 85.138332 79.609732 -0.964047 1.024181 -1.226079 -0.070068 -0.218451 -0.023624
245.232363 56.690449 263.894937 -53.365119 -55.915119 2.320685 -2.010243 21.247946 -1.612984 -0.741707 9.435519 -0.693280 -0.741707 9.435519 -0.693280 -0.544226 7.077501 -0.507234 -6.547921 18.849675 -1.785020 -11.427625 -1.088931 -1.169219 -1.476668 9.603333 12.641583 24.556609 -18.298897 -24.663087 -4.227174 -42.980542 34.795934 2.545811 -10.174553 -8.831260 -1.203792 11.498758 -9.947487 -8.269522 -19.476819 17.754431 17.606102 -45.417943 -36.667299 0.265791 2.358590 -3.770181 -7.624580 -31.146602 -9.296232 -92.920453 73.591474 -108.204144 -2.957633 -4.916564 6.850889 0.011525 0.294247 0.004426 4.282901 -31.710345 12.079757 77.057821 85.134193 79.585377 -0.964767 1.021250 -1.227160 -0.068045 -0.215381 -0.021804
245.232675 56.690408 263.896185 -53.361565 -55.915764 2.316111 -2.008479 21.244847 -1.609060 -0.741797 9.433993 -0.691589 -0.741797 9.433993 -0.691589 -0.544322 7.076354 -0.505970 -6.546830 18.855104 -1.788272 -11.424395 -1.079184 -1.175922 -1.483755 9.600774 12.630315 24.552568 -18.295060 -24.649301 -4.215794 -42.979306 34.791460 2.541621 -10.169705 -8.837034 -1.208061 11.505573 -9.952359 -8.260191 -19.475235 17.747662 17.603162 -45.424379 -36.670578 0.266851 2.364586 -3.765989 -7.625632 -31.146245 -9.295283 -92.929781 73.590156 -108.212486 -2.959469 -4.915804 6.850987 0.012351 0.292121 0.005332 4.285554 -31.709764 12.081727 77.076073 85.133905 79.603563 -0.965529 1.014223 -1.225956 -0.067868 -0.211931 -0.020564
